<svg width="1042" height="158" viewBox="0 0 1042 158" fill="none" xmlns="http://www.w3.org/2000/svg">
<path fill-rule="evenodd" clip-rule="evenodd" d="M96.0454 48.6364C97.1062 40.1557 90.5119 32.5185 81.9651 32.5185C73.42 32.5185 66.8079 25.0301 67.8659 16.5508L68.1794 14.0382C69.1096 6.58345 63.2965 0 55.7839 0C49.47 0 44.1488 4.71153 43.3843 10.979L42.365 19.3348C41.4469 26.8608 35.0571 32.5185 27.4753 32.5185H23.7073C16.4077 32.5185 10.2558 37.9657 9.37224 45.2116L9.19883 46.6336C8.24164 54.483 14.3672 61.4009 22.2747 61.4009C30.1732 61.4009 36.296 68.3039 35.3532 76.146L34.9562 79.4478C34.05 86.9853 27.6552 92.6573 20.0635 92.6573H16.319C9.01849 92.6573 2.86544 98.1041 1.97977 105.351L1.8048 106.782C0.845573 114.631 6.96992 121.549 14.8767 121.549C22.7777 121.549 28.9003 128.458 27.9503 136.302L27.0463 143.766C26.1458 151.201 31.9498 157.75 39.4397 157.75C45.7434 157.75 51.0581 153.051 51.8297 146.795L60.7371 74.565C61.6642 67.0476 68.0501 61.4009 75.6244 61.4009H81.7014C88.984 61.4009 95.1416 55.8627 96.0454 48.6364Z" fill="white"/>
<path fill-rule="evenodd" clip-rule="evenodd" d="M144.205 65.0932C151.507 65.0932 157.661 59.6441 158.545 52.3957L158.719 50.9653C159.676 43.1177 153.552 36.2014 145.646 36.2014C137.746 36.2014 131.624 29.2943 132.572 21.4512L133.474 13.9845C134.373 6.54854 128.568 0 121.078 0C114.773 0 109.457 4.70096 108.686 10.9589L99.7846 83.1843C98.8581 90.7022 92.472 96.3496 84.8972 96.3496H78.8229C71.5378 96.3496 65.3779 101.892 64.474 109.12C63.4134 117.602 70.0079 125.241 78.5553 125.241C87.1014 125.241 93.7142 132.731 92.6556 141.211L92.3434 143.712C91.4129 151.167 97.2258 157.75 104.738 157.75C111.053 157.75 116.375 153.038 117.138 146.769L118.153 138.429C119.07 130.901 125.46 125.241 133.044 125.241H136.807C144.109 125.241 150.263 119.792 151.147 112.544L151.321 111.116C152.278 103.267 146.152 96.3496 138.245 96.3496C130.345 96.3496 124.222 89.4442 125.168 81.6012L125.566 78.2983C126.474 70.7627 132.868 65.0932 140.458 65.0932H144.205Z" fill="white"/>
<path fill-rule="evenodd" clip-rule="evenodd" d="M211 27C211 15.9543 219.954 7 231 7H1022C1033.05 7 1042 15.9543 1042 27V138C1042 149.046 1033.05 158 1022 158H231C219.954 158 211 149.046 211 138V27ZM296.424 42C299.075 42 301.224 44.149 301.224 46.8V69.795C301.224 72.446 303.373 74.595 306.024 74.595H320.689C323.34 74.595 325.489 72.446 325.489 69.795V46.8C325.489 44.149 327.638 42 330.289 42H336.913C339.564 42 341.713 44.149 341.713 46.8V118.669C341.713 121.32 339.564 123.469 336.913 123.469H330.289C327.638 123.469 325.489 121.32 325.489 118.669V95.6663C325.489 93.0153 323.34 90.8663 320.689 90.8663H306.024C303.373 90.8663 301.224 93.0153 301.224 95.6663V118.669C301.224 121.32 299.075 123.469 296.424 123.469H289.8C287.149 123.469 285 121.32 285 118.669V46.8C285 44.149 287.149 42 289.8 42H296.424ZM502.664 46.8C502.664 44.149 500.515 42 497.864 42H491.167C488.516 42 486.367 44.149 486.367 46.8V118.669C486.367 121.32 488.516 123.469 491.167 123.469H497.864C500.515 123.469 502.664 121.32 502.664 118.669V95.6663C502.664 93.0153 504.813 90.8663 507.464 90.8663H522.233C524.884 90.8663 527.033 93.0153 527.033 95.6663V118.669C527.033 121.32 529.182 123.469 531.833 123.469H538.53C541.181 123.469 543.33 121.32 543.33 118.669V46.8C543.33 44.149 541.181 42 538.53 42H531.833C529.182 42 527.033 44.149 527.033 46.8V69.795C527.033 72.446 524.884 74.595 522.233 74.595H507.464C504.813 74.595 502.664 72.446 502.664 69.795V46.8ZM445.334 88.6446C442.588 87.65 439.98 86.313 437.569 84.6636C434.706 82.7269 432.208 80.2953 430.192 77.4839C428.01 74.5125 426.921 70.8065 426.921 66.3682C426.921 52.9108 437.824 42 451.273 42C463.09 42 472.941 50.424 475.158 61.5976C475.674 64.1979 473.475 66.3682 470.824 66.3682H464.065C461.47 66.3682 459.452 64.1373 457.977 62.0023C456.466 59.8139 453.912 58.4126 451.055 58.4987C446.766 58.6261 443.318 62.0748 443.188 66.3682C443.081 69.0271 444.422 71.5337 446.693 72.9156C448.332 74.0677 450.119 74.9923 452.007 75.6671C452.574 75.8695 454.128 76.3343 456.659 77.0765C459.475 77.9437 462.166 79.1807 464.654 80.7576C467.585 82.5844 470.153 84.9311 472.237 87.6825C474.49 90.5939 475.614 94.3149 475.609 98.8507C475.609 112.308 464.707 123.219 451.258 123.219C439.441 123.219 429.589 114.795 427.373 103.621C426.857 101.021 429.055 98.8507 431.706 98.8507H438.53C441.125 98.8507 443.144 101.082 444.619 103.216C446.13 105.405 448.685 106.806 451.54 106.72C455.83 106.593 459.278 103.144 459.407 98.8507C459.407 95.4245 458.041 93.2079 455.308 92.1932C452.574 91.1811 450.718 90.4914 449.739 90.1265C449.237 89.9891 447.763 89.4868 445.334 88.6446ZM387.247 45.7853L387.274 45.8435L420.751 120.338C421.412 121.807 420.337 123.469 418.726 123.469H408.228H407.521C405.897 123.469 404.423 122.52 403.751 121.042L391.899 94.9748C391.896 94.9689 391.901 94.9622 391.907 94.9622C391.913 94.9622 391.918 94.9556 391.915 94.9497L389.321 89.1406C387.865 85.8802 383.24 85.8735 381.774 89.1296L379.161 94.9354C379.155 94.948 379.165 94.9622 379.178 94.9622H379.186L379.189 94.9624C379.192 94.9629 379.194 94.9642 379.196 94.9662L379.198 94.9675L379.199 94.9695C379.2 94.9706 379.2 94.9718 379.201 94.9731C379.201 94.9744 379.201 94.9758 379.201 94.9772L379.201 94.9789C379.201 94.9811 379.2 94.9833 379.199 94.9853C379.196 94.9896 379.195 94.995 379.197 94.9997L383.495 104.449C384.94 107.627 382.617 111.236 379.126 111.236H372.49C372.088 111.236 371.726 111.477 371.572 111.848L367.467 120.939C366.772 122.479 365.239 123.469 363.549 123.469H362.895H352.389C350.777 123.469 349.701 121.807 350.361 120.337L383.791 45.7936C384.463 44.3103 386.568 44.3053 387.247 45.7853ZM960.009 64.032C961.833 67.302 966.531 67.3189 968.378 64.062L976.822 49.1674C978.636 45.9675 976.325 42 972.647 42H964.989C963.26 42 961.664 42.9303 960.812 44.4352L956.231 52.5258C955.406 53.9832 955.401 55.7652 956.216 57.228L960.009 64.032ZM889.747 42C887.096 42 884.947 44.149 884.947 46.8V118.669C884.947 121.32 887.096 123.469 889.747 123.469H896.386C899.037 123.469 901.186 121.32 901.186 118.669V46.8C901.186 44.149 899.037 42 896.386 42H889.747ZM795.642 42.0028C799.043 42.0015 801.367 45.4397 800.097 48.5947L797.411 55.2707C796.679 57.0882 794.917 58.2788 792.958 58.2788H780.698C778.047 58.2788 775.898 60.4278 775.898 63.0788V118.669C775.898 121.32 773.749 123.469 771.098 123.469H764.411C761.76 123.469 759.611 121.32 759.611 118.669V63.1012C759.611 60.4503 757.462 58.3012 754.811 58.3012H746.398C742.998 58.3012 740.675 54.8636 741.945 51.7093L744.633 45.0293C745.364 43.2124 747.125 42.022 749.084 42.0212L795.642 42.0028ZM619.069 79.8391C619.071 79.8346 619.076 79.8331 619.08 79.8346C619.08 79.8348 619.08 79.835 619.081 79.8353L619.082 79.8361C619.083 79.8369 619.084 79.8379 619.084 79.8391L627.129 99.6323C627.6 100.791 627.6 102.088 627.129 103.247L623.357 112.527C621.735 116.517 616.084 116.517 614.463 112.526L608.373 97.5374C606.75 93.5441 601.095 93.5473 599.477 97.5423L590.19 120.471C589.456 122.283 587.697 123.469 585.741 123.469H578.484C575.09 123.469 572.768 120.042 574.026 116.889L599.466 53.1566C601.073 49.1308 606.77 49.1287 608.38 53.1534L616.497 73.4443C616.501 73.455 616.503 73.4663 616.503 73.4778C616.503 73.4894 616.505 73.501 616.51 73.5118L617.355 75.5896L619.054 79.8391C619.056 79.8435 619.06 79.845 619.064 79.8439C619.066 79.8432 619.068 79.8416 619.069 79.8391ZM638.409 53.3033C636.799 49.257 631.065 49.2744 629.479 53.3303L625.805 62.7248C625.362 63.8583 625.366 65.1179 625.816 66.2486L633.91 86.5754L647.653 120.472C648.387 122.284 650.147 123.469 652.101 123.469H659.262C662.654 123.469 664.976 120.045 663.721 116.894L638.409 53.3033ZM957.72 82.6116C957.723 82.6172 957.725 82.6232 957.726 82.6294C957.727 82.6405 957.725 82.652 957.719 82.6619C957.71 82.6774 957.71 82.6966 957.719 82.7123L976.808 116.297C978.626 119.497 976.315 123.469 972.635 123.469H964.978C963.251 123.469 961.657 122.541 960.804 121.039L952.553 106.507C950.713 103.267 946.046 103.267 944.205 106.506L935.951 121.033C935.096 122.538 933.496 123.466 931.765 123.461L924.137 123.441C920.465 123.431 918.164 119.47 919.974 116.275L937.662 85.0544C938.495 83.5858 938.494 81.7882 937.661 80.3201L919.992 49.1681C918.177 45.9683 920.488 42 924.167 42H931.776C933.501 42 935.094 42.9258 935.947 44.425L948.369 66.2417C948.374 66.2502 948.386 66.2503 948.391 66.242C948.396 66.2336 948.409 66.2337 948.413 66.2422L957.72 82.6116ZM865.264 86.8553C874.261 73.9153 871.078 56.1246 858.156 47.118C853.399 43.8018 847.745 42.0175 841.954 42C841.464 42 841.067 42.3971 841.067 42.8869V57.4144C841.067 57.9042 841.464 58.3012 841.954 58.3012C848.7 58.4662 854.031 64.074 853.871 70.8264C853.711 77.3489 848.467 82.5969 841.954 82.7569H834.59C831.939 82.7569 829.79 80.6078 829.79 77.9569V58.3375C829.79 58.3304 829.792 58.3239 829.795 58.3183C829.797 58.315 829.8 58.312 829.803 58.3096C829.809 58.3044 829.817 58.3012 829.826 58.3012C829.846 58.3012 829.862 58.285 829.862 58.265V46.8C829.862 44.149 827.713 42 825.062 42H818.295C815.644 42 813.495 44.149 813.495 46.8V118.669C813.495 121.32 815.644 123.469 818.295 123.469H824.99C827.641 123.469 829.79 121.32 829.79 118.669V108.925C829.79 104.228 835.839 102.326 838.526 106.179L849.153 121.415C850.051 122.702 851.521 123.469 853.09 123.469H861.256C865.136 123.469 867.413 119.104 865.193 115.922L855.616 102.196C853.826 99.6304 854.956 96.0627 857.572 94.3466C860.575 92.3764 863.19 89.8384 865.264 86.8553ZM709.745 45.7862L709.771 45.8435L743.14 120.347C743.797 121.813 742.724 123.469 741.118 123.469H730.655H729.95C728.332 123.469 726.863 122.522 726.195 121.047L714.382 94.9759C714.38 94.9713 714.381 94.9663 714.385 94.9638C714.387 94.9628 714.389 94.9622 714.391 94.9622C714.395 94.9622 714.398 94.9595 714.4 94.956C714.401 94.9537 714.401 94.9511 714.399 94.9486L711.821 89.1565C710.37 85.8964 705.745 85.8899 704.285 89.146L701.688 94.9364C701.682 94.9485 701.691 94.9622 701.705 94.9622H701.716C701.728 94.9622 701.734 94.9769 701.725 94.9855C701.721 94.9895 701.72 94.9956 701.723 95.0008L706.008 104.454C707.448 107.632 705.125 111.236 701.636 111.236H695.042C694.64 111.236 694.278 111.477 694.124 111.848L690.033 120.944C689.342 122.481 687.814 123.469 686.129 123.469H685.477H675.014C673.403 123.469 672.327 121.81 672.984 120.339L706.301 45.7936C706.969 44.3134 709.07 44.3089 709.745 45.7862Z" fill="white"/>
</svg>
