<svg width="246" height="52" viewBox="0 0 246 52" fill="none" xmlns="http://www.w3.org/2000/svg">
<mask id="mask0_612_2716" style="mask-type:luminance" maskUnits="userSpaceOnUse" x="0" y="0" width="52" height="52">
<path d="M25.5785 51.8916C39.6657 51.8916 51.0857 40.4749 51.0857 26.3916C51.0857 12.3083 39.6657 0.891602 25.5785 0.891602C11.4913 0.891602 0.0712891 12.3083 0.0712891 26.3916C0.0712891 40.4749 11.4913 51.8916 25.5785 51.8916Z" fill="white"/>
</mask>
<g mask="url(#mask0_612_2716)">
<path fill-rule="evenodd" clip-rule="evenodd" d="M8.54359 32.1109V45.7858L7.90799 55.6981H43.2489V32.0145C43.2489 30.662 42.7063 29.3659 41.7426 28.4165L29.8904 16.7409C27.9684 14.8476 24.8976 14.798 22.9157 16.6284L20.6448 18.7254L18.1905 16.3077C17.1237 15.2567 15.6494 15.0165 14.3187 16.2453C13.8759 16.6542 13.466 17.0315 13.0579 17.4072C12.2399 18.1602 11.429 18.9067 10.3733 19.8887C8.79099 21.3606 8.57146 22.322 8.53778 23.6876V32.1128L8.5436 32.1083C8.54359 32.1092 8.54359 32.11 8.54359 32.1109ZM17.811 21.3423L12.5379 26.2118L12.603 23.5696C12.6109 23.2456 12.7499 22.9385 12.9881 22.7186L16.1985 19.7539L17.811 21.3423ZM12.5024 51.39L12.8442 46.0614C12.85 45.9697 12.8529 45.8778 12.8529 45.7858V32.1109C12.8529 31.9036 12.9396 31.7057 13.0919 31.5651L25.8397 19.793C26.1313 19.5237 26.583 19.531 26.8657 19.8095L38.718 31.4852C38.8598 31.6249 38.9396 31.8155 38.9396 32.0145V51.39H12.5024Z" fill="white"/>
<path fill-rule="evenodd" clip-rule="evenodd" d="M19.2833 50.6209V41.0101C19.2833 38.9693 20.5118 37.1289 22.3969 36.3457L28.6018 33.7677C29.3839 33.4428 30.2766 33.5299 30.981 33.9998C31.6854 34.4698 32.1085 35.2605 32.1085 36.1071V55.6978H19.0484L19.2833 50.6209ZM27.7991 38.7665L24.0507 40.3239C23.7734 40.4391 23.5927 40.7099 23.5927 41.0101V50.6209C23.5927 50.6873 23.5911 50.7537 23.5881 50.82L23.5617 51.3897H27.7991V38.7665Z" fill="white"/>
</g>
<path fill-rule="evenodd" clip-rule="evenodd" d="M25.5785 0.891602C39.6562 0.891602 51.0856 12.3178 51.0856 26.3916C51.0856 40.4654 39.6562 51.8915 25.5785 51.8915C11.5007 51.8915 0.0712891 40.4654 0.0712891 26.3916C0.0712891 12.3178 11.5007 0.891602 25.5785 0.891602ZM25.5785 5.19974C13.879 5.19974 4.38064 14.6955 4.38064 26.3916C4.38064 38.0877 13.879 47.5834 25.5785 47.5834C37.2779 47.5834 46.7763 38.0877 46.7763 26.3916C46.7763 14.6955 37.2779 5.19974 25.5785 5.19974Z" fill="white"/>
<path d="M73.1817 43.7756C71.2617 43.7756 70.2057 42.6716 70.2057 40.7036V12.1916C70.2057 10.2236 71.2617 9.1676 73.1817 9.1676C75.1017 9.1676 76.2057 10.2236 76.2057 12.1916V23.3276C77.7897 20.7836 80.6217 19.4396 83.8857 19.4396C89.5017 19.4396 92.1897 22.6076 92.1897 29.0876V40.7036C92.1897 42.6716 91.1337 43.7756 89.2137 43.7756C87.2937 43.7756 86.1897 42.6716 86.1897 40.7036V29.3756C86.1897 25.7276 84.8457 24.1436 81.9657 24.1436C78.4617 24.1436 76.2057 26.5436 76.2057 30.1916V40.7036C76.2057 42.6716 75.1497 43.7756 73.1817 43.7756ZM107.788 43.8716C100.492 43.8716 95.7878 39.1676 95.7878 31.6316C95.7878 24.1436 100.492 19.4396 107.788 19.4396C115.036 19.4396 119.788 24.1436 119.788 31.6316C119.788 39.1676 115.036 43.8716 107.788 43.8716ZM107.788 39.3116C111.34 39.3116 113.74 36.7196 113.74 31.6316C113.74 26.5436 111.34 23.9996 107.788 23.9996C104.188 23.9996 101.836 26.5436 101.836 31.6316C101.836 36.7196 104.188 39.3116 107.788 39.3116ZM126.612 43.7756C124.692 43.7756 123.636 42.6716 123.636 40.7036V22.5596C123.636 20.5916 124.692 19.5356 126.564 19.5356C128.436 19.5356 129.492 20.5916 129.492 22.5596V23.5196C130.932 20.9756 133.476 19.4396 136.74 19.4396C140.148 19.4396 142.548 20.9276 143.652 24.0476C145.14 21.1676 148.02 19.4396 151.524 19.4396C156.852 19.4396 159.444 22.5596 159.444 29.0876V40.7036C159.444 42.6716 158.34 43.7756 156.42 43.7756C154.5 43.7756 153.444 42.6716 153.444 40.7036V29.3276C153.444 25.7276 152.34 24.1436 149.556 24.1436C146.436 24.1436 144.516 26.4956 144.516 30.3836V40.7036C144.516 42.6716 143.46 43.7756 141.54 43.7756C139.62 43.7756 138.516 42.6716 138.516 40.7036V29.3276C138.516 25.7276 137.412 24.1436 134.676 24.1436C131.508 24.1436 129.636 26.4956 129.636 30.3836V40.7036C129.636 42.6716 128.58 43.7756 126.612 43.7756ZM176.002 43.8716C168.034 43.8716 163.138 39.1676 163.138 31.6796C163.138 24.4316 168.034 19.4396 174.898 19.4396C181.57 19.4396 185.698 23.9516 185.698 31.2476C185.698 32.3996 184.882 33.0236 183.394 33.0236H168.898C169.33 37.2476 171.778 39.3116 176.098 39.3116C177.73 39.3116 179.986 38.9756 181.858 37.9196C185.17 36.0476 186.802 40.0316 183.922 41.8076C181.666 43.1996 178.498 43.8716 176.002 43.8716ZM175.138 23.5196C171.586 23.5196 169.378 25.8236 168.898 29.5676H180.706C180.466 25.6316 178.546 23.5196 175.138 23.5196ZM205.385 43.3916H190.361C187.865 43.3916 187.145 40.6076 188.969 38.5916L200.249 24.4316H190.073C188.585 24.4316 187.769 23.6156 187.769 22.1756C187.769 20.7356 188.585 19.9196 190.073 19.9196H204.281C207.113 19.9196 207.833 22.6556 206.057 24.6236L194.633 38.8796H205.385C206.873 38.8796 207.689 39.6956 207.689 41.1356C207.689 42.5756 206.873 43.3916 205.385 43.3916ZM217.949 43.8716C212.861 43.8716 209.165 40.6556 209.165 36.4316C209.165 31.2956 212.813 29.4716 222.989 29.4716H224.669V28.4636C224.669 25.2476 223.373 23.9516 220.061 23.9516C218.189 23.9516 216.029 24.3356 213.677 25.4396C210.605 26.8796 209.309 22.3196 212.285 21.1196C215.213 19.9196 217.997 19.4396 220.253 19.4396C227.117 19.4396 230.381 22.5116 230.381 29.1836V40.7036C230.381 42.6716 229.373 43.7756 227.597 43.7756C225.773 43.7756 224.765 42.6716 224.765 40.7036V39.6476C223.709 42.2876 221.261 43.8716 217.949 43.8716ZM219.197 39.7436C222.317 39.7436 224.669 37.3436 224.669 33.9836V32.9276H223.037C217.037 32.9276 215.021 33.6956 215.021 36.1436C215.021 38.2556 216.557 39.7436 219.197 39.7436ZM238.247 15.1196C235.991 15.1196 234.695 13.9676 234.695 11.9516C234.695 9.8876 235.991 8.7836 238.247 8.7836C240.551 8.7836 241.799 9.8876 241.799 11.9516C241.799 13.9676 240.551 15.1196 238.247 15.1196ZM238.247 43.7276C236.327 43.7276 235.271 42.5276 235.271 40.4636V22.8476C235.271 20.7356 236.327 19.5836 238.247 19.5836C240.167 19.5836 241.271 20.7356 241.271 22.8476V40.4636C241.271 42.5276 240.215 43.7276 238.247 43.7276Z" fill="white"/>
</svg>
