<svg xmlns="http://www.w3.org/2000/svg" viewBox="171.912 91.501 97.688 32.207">
  <path fill-rule="evenodd" clip-rule="evenodd" d="M 174.795 97.978 L 194.066 97.978 L 197.303 101.223 L 197.303 120.486 L 200.318 120.486 L 203.551 117.253 L 203.551 94.975 L 200.315 91.73 L 178.04 91.73 L 174.795 94.975 L 174.795 97.978 Z M 176.326 96.447 L 176.326 95.609 L 178.674 93.26 L 199.68 93.26 L 202.021 95.608 C 202.021 95.608 202.021 113.049 202.021 116.619 L 199.684 118.955 L 198.834 118.955 L 198.834 101.223 L 198.387 100.143 L 195.15 96.897 L 194.066 96.447 L 176.326 96.447 Z" fill="#ffffff" data-immersive-translate-walked="2672b08f-49ca-48af-b893-75dfb486be0c"/>
  <path fill-rule="evenodd" clip-rule="evenodd" d="M 200.668 120.129 L 200.668 97.854 L 197.423 94.609 L 175.158 94.609 L 171.912 97.854 L 171.912 120.132 L 175.145 123.365 L 197.423 123.365 L 200.668 120.129 Z" fill="#ffffff" data-immersive-translate-walked="2672b08f-49ca-48af-b893-75dfb486be0c"/>
  <path d="M 213 107.048 L 213 103.184 L 217.184 103.184 C 220.819 103.184 223.105 101.081 223.105 97.446 C 223.105 93.81 220.819 91.73 217.184 91.73 L 208.701 91.73 L 208.701 107.048 L 213 107.048 Z M 216.704 95.594 C 218.212 95.594 218.83 95.891 218.83 97.446 C 218.83 99.023 218.212 99.32 216.704 99.32 L 213 99.32 L 213 95.594 L 216.704 95.594 Z" data-immersive-translate-walked="2672b08f-49ca-48af-b893-75dfb486be0c" fill="#ffffff"/>
  <path d="M 225.041 107.048 L 226.23 104.213 L 233.501 104.213 L 234.667 107.048 L 239.605 107.048 L 232.975 91.73 L 226.825 91.73 L 220.217 107.048 L 225.041 107.048 Z M 228.745 98.2 L 229.728 95.617 L 230.025 95.617 L 231.031 98.2 L 231.923 100.349 L 227.853 100.349 L 228.745 98.2 Z" data-immersive-translate-walked="2672b08f-49ca-48af-b893-75dfb486be0c" fill="#ffffff"/>
  <path d="M 245.527 107.277 C 249.117 107.277 250.42 105.562 250.831 103.779 L 251.06 103.779 L 251.06 107.048 L 255.061 107.048 L 255.061 98.68 L 246.007 98.68 L 246.007 101.835 L 250.717 101.835 C 250.511 103.002 249.597 103.162 246.419 103.162 C 243.309 103.162 242.463 102.43 242.463 99.389 C 242.463 96.348 243.355 95.617 246.647 95.617 C 249.368 95.617 250.237 96.165 250.237 97.583 L 250.237 97.743 L 255.038 97.743 L 255.038 97.583 C 255.038 93.787 251.952 91.501 246.762 91.501 C 241.183 91.501 237.891 94.611 237.891 99.389 C 237.891 104.167 240.703 107.277 245.527 107.277 Z" data-immersive-translate-walked="2672b08f-49ca-48af-b893-75dfb486be0c" fill="#ffffff"/>
  <path d="M 269.435 107.048 L 269.435 103.184 L 260.13 103.184 L 260.13 101.264 L 269.092 101.264 L 269.092 97.423 L 260.13 97.423 L 260.13 95.594 L 269.435 95.594 L 269.435 91.73 L 255.831 91.73 L 255.831 107.048 L 269.435 107.048 Z" data-immersive-translate-walked="2672b08f-49ca-48af-b893-75dfb486be0c" fill="#ffffff"/>
  <path d="M 244.767 123.708 C 250.231 123.708 253.341 120.599 253.341 115.82 C 253.341 111.042 250.231 107.933 244.767 107.933 C 239.44 107.933 236.284 111.042 236.284 115.82 C 236.284 120.599 239.44 123.708 244.767 123.708 Z M 244.767 119.593 C 241.657 119.593 240.857 118.861 240.857 115.82 C 240.857 112.78 241.657 112.048 244.767 112.048 C 247.876 112.048 248.768 112.78 248.768 115.82 C 248.768 118.861 247.876 119.593 244.767 119.593 Z" data-immersive-translate-walked="2672b08f-49ca-48af-b893-75dfb486be0c" fill="#ffffff"/>
  <path d="M 258.443 123.428 L 258.443 117.437 L 258.26 114.511 L 258.557 114.511 L 260.501 117.529 L 265.028 123.428 L 269.6 123.428 L 269.6 108.109 L 265.6 108.109 L 265.6 114.031 L 265.508 117.369 L 265.211 117.369 L 262.97 113.848 L 258.717 108.109 L 254.145 108.109 L 254.145 123.428 L 258.443 123.428 Z" data-immersive-translate-walked="2672b08f-49ca-48af-b893-75dfb486be0c" fill="#ffffff"/>
<script xmlns=""/></svg>